<svg version="1.1" id="Layer_1" xmlns="http://www.w3.org/2000/svg" xmlns:xlink="http://www.w3.org/1999/xlink" x="0px" y="0px"
	 width="100%" viewBox="0 0 399 126" enable-background="new 0 0 399 126" xml:space="preserve">
<path fill="#FDFEFE" opacity="1.000000" stroke="none" 
	d="
M1.000000,23.000000 
	C1.000000,15.678019 1.000000,8.356038 1.000000,1.000000 
	C87.687561,1.000000 174.375122,1.000000 261.367798,1.302795 
	C258.657562,4.329385 255.072693,6.641099 252.743027,9.860985 
	C247.565018,17.017632 241.026337,21.007738 232.150681,20.998026 
	C228.656448,20.994204 226.938370,22.670422 226.968124,26.202963 
	C227.010193,31.201504 227.012207,36.200951 226.968369,41.199455 
	C226.937256,44.744965 228.600845,46.390186 232.160431,46.289337 
	C235.251984,46.201748 238.347977,46.271107 241.796143,46.271107 
	C241.796143,48.810078 241.796143,50.621204 241.796143,52.432331 
	C241.796249,74.594124 241.867477,96.756332 241.737366,118.917358 
	C241.710846,123.431274 243.359207,125.336052 247.913513,125.072273 
	C251.899246,124.841431 255.909012,125.035851 259.908081,125.021835 
	C266.051636,125.000298 266.878052,124.218262 266.882751,118.167740 
	C266.899963,96.172592 266.889587,74.177422 266.889587,52.182262 
	C266.889587,50.397747 266.889587,48.613232 266.889587,46.277874 
	C269.899506,46.277874 272.364807,46.132950 274.806915,46.309505 
	C279.227142,46.629074 280.795471,44.381283 280.733002,40.312695 
	C280.669098,36.147953 280.759796,31.981005 280.713684,27.815786 
	C280.651245,22.175045 279.547791,21.070742 274.033081,21.005556 
	C271.756470,20.978645 269.479248,21.001095 266.722900,21.001095 
	C266.722900,16.059809 267.019531,11.734550 266.601379,7.479528 
	C266.382874,5.255949 264.907623,3.155862 264.000000,1.000000 
	C309.333344,1.000000 354.666656,1.000000 400.000000,1.000000 
	C400.000000,43.000000 400.000000,85.000000 400.000000,127.000000 
	C267.000000,127.000000 134.000000,127.000000 1.000000,127.000000 
	C1.000000,125.666641 1.000000,124.333282 1.171996,122.669296 
	C1.343993,122.338676 1.820120,122.259079 1.896478,122.681107 
	C9.681394,123.165894 17.389952,123.228638 25.441517,123.099838 
	C25.935965,121.910820 26.087400,120.913338 26.383991,119.471176 
	C26.529144,110.755859 26.529144,102.485222 26.529144,93.929153 
	C32.685501,93.929153 38.168488,94.053696 43.643959,93.903824 
	C55.911152,93.568062 63.556473,87.579239 66.921349,75.501373 
	C66.960152,63.049427 66.886490,51.051964 66.816559,38.688667 
	C64.665886,28.675690 52.484280,20.609306 43.124516,20.891825 
	C31.150316,21.253256 19.155836,20.900099 7.173004,21.065584 
	C5.427953,21.089684 3.699043,22.282528 1.728237,23.042711 
	C1.329207,23.100573 1.164603,23.050287 1.000000,23.000000 
M191.397675,62.482796 
	C189.010544,67.763695 183.678162,66.002617 180.068405,66.077042 
	C175.661652,66.167915 175.858826,61.370773 175.881775,57.688251 
	C175.945053,47.535290 176.032913,37.375660 175.692719,27.232706 
	C175.623672,25.174139 173.782944,21.472149 172.653015,21.430904 
	C165.791321,21.180449 158.898941,21.770742 151.276688,22.337666 
	C150.903107,23.913736 150.216644,25.487604 150.205521,27.066225 
	C150.117950,39.498775 150.034775,51.934353 150.246399,64.363960 
	C150.301193,67.582626 151.403900,70.783455 152.051880,74.711136 
	C155.658401,83.877480 162.461441,89.110779 172.102844,90.448448 
	C176.193909,91.016052 180.388657,90.878777 184.538315,90.967575 
	C187.684937,91.034904 191.672348,90.431396 191.736938,94.886269 
	C191.807312,99.739182 187.566193,99.077248 184.306030,99.104836 
	C177.486450,99.162560 170.653473,98.925041 163.854507,99.310921 
	C161.938217,99.419670 158.548462,101.223518 158.514908,102.331123 
	C158.306870,109.197037 158.862930,116.086090 159.434692,123.684509 
	C160.190353,124.012955 160.950500,124.636971 161.701019,124.625626 
	C173.467911,124.447701 185.233536,124.187859 197.738693,123.920174 
	C210.379776,119.515976 216.055740,112.391907 216.979385,99.032486 
	C216.898071,74.051994 216.816742,49.071503 216.577408,23.354795 
	C214.914291,22.567713 213.288254,21.213627 211.580948,21.101927 
	C206.827744,20.790939 202.036102,20.877436 197.269974,21.066925 
	C195.791702,21.125698 194.346527,22.016989 192.159882,23.102879 
	C192.062515,36.058598 191.965164,49.014320 191.397675,62.482796 
M141.015762,113.099564 
	C140.962585,91.391670 140.909393,69.683784 140.968033,47.502686 
	C140.968033,47.502686 140.848526,47.031364 140.994308,46.200417 
	C140.864090,34.073174 133.764557,24.280249 122.812874,22.634388 
	C111.265144,20.898952 99.355537,21.520864 87.600510,21.305496 
	C86.590729,21.286997 84.686508,22.691788 84.667099,23.471958 
	C84.504120,30.024084 84.626900,36.586800 84.860100,43.139332 
	C84.880920,43.724339 86.289268,44.259964 87.960777,45.037556 
	C96.289078,45.117329 104.617386,45.197105 113.339439,45.889050 
	C116.698341,51.019913 115.601700,54.349270 110.038528,54.875999 
	C104.762711,55.375519 99.347740,54.745716 94.140030,55.553860 
	C83.042336,57.276024 76.128571,64.710907 74.013786,76.968483 
	C74.058823,85.628906 74.103859,94.289322 74.040039,103.723373 
	C77.176193,116.690376 82.801064,122.074272 95.966759,123.987801 
	C108.284081,123.913086 120.601395,123.838364 133.614105,123.729424 
	C137.458084,121.994423 139.981308,119.172050 140.966049,114.502434 
	C140.966049,114.502434 140.856537,114.028526 141.015762,113.099564 
M347.187958,24.154209 
	C336.614990,17.931025 326.325226,18.848698 315.952423,25.866541 
	C315.417755,21.410263 312.668060,20.698372 309.093719,20.871862 
	C304.937775,21.073580 300.764343,20.894760 296.598816,20.925032 
	C290.849152,20.966812 290.083435,21.756683 290.054993,27.693869 
	C290.028656,33.192524 290.049286,38.691406 290.049286,44.190189 
	C290.049347,68.684761 290.115540,93.179672 289.991180,117.673615 
	C289.967590,122.322998 291.543152,124.517914 296.390137,124.190948 
	C299.873505,123.955971 303.385498,124.146523 306.884735,124.145828 
	C315.675873,124.144081 315.725922,124.097206 315.726532,115.153671 
	C315.727936,94.658211 315.696930,74.162689 315.740906,53.667332 
	C315.753754,47.688633 317.743561,45.766724 323.474609,45.801983 
	C328.827881,45.834915 330.970642,47.925529 330.983795,53.423859 
	C331.035217,74.918823 331.113953,96.414406 330.985718,117.908585 
	C330.957550,122.626633 332.610199,124.654579 337.428925,124.325317 
	C341.409485,124.053337 345.423401,124.278809 349.422485,124.267357 
	C356.103241,124.248238 356.718109,123.634544 356.722595,116.735031 
	C356.736237,95.739693 356.698914,74.744263 356.748169,53.749031 
	C356.762024,47.840775 358.611023,45.873432 363.834290,45.731510 
	C369.845520,45.568180 371.979706,47.604382 371.990540,53.690338 
	C372.028564,75.018723 372.103607,96.347527 371.993469,117.675293 
	C371.969543,122.306404 373.532135,124.482613 378.396362,124.200790 
	C382.880310,123.940994 387.401947,123.950989 391.887146,124.199699 
	C396.355988,124.447495 397.813690,122.252113 397.808716,118.212181 
	C397.779297,94.384171 397.956726,70.554466 397.717773,46.728809 
	C397.609283,35.909370 392.774902,27.525517 382.719391,22.724073 
	C373.120392,18.140642 363.995819,19.392744 355.356262,25.301470 
	C354.167786,26.114292 353.058685,27.043188 351.968353,27.875954 
	C350.396881,26.627474 349.096405,25.594316 347.187958,24.154209 
z"/>
<path fill="#55C1F0" opacity="1.000000" stroke="none" 
	d="
M263.666687,1.000000 
	C264.907623,3.155862 266.382874,5.255949 266.601379,7.479528 
	C267.019531,11.734550 266.722900,16.059809 266.722900,21.001095 
	C269.479248,21.001095 271.756470,20.978645 274.033081,21.005556 
	C279.547791,21.070742 280.651245,22.175045 280.713684,27.815786 
	C280.759796,31.981005 280.669098,36.147953 280.733002,40.312695 
	C280.795471,44.381283 279.227142,46.629074 274.806915,46.309505 
	C272.364807,46.132950 269.899506,46.277874 266.889587,46.277874 
	C266.889587,48.613232 266.889587,50.397747 266.889587,52.182262 
	C266.889587,74.177422 266.899963,96.172592 266.882751,118.167740 
	C266.878052,124.218262 266.051636,125.000298 259.908081,125.021835 
	C255.909012,125.035851 251.899246,124.841431 247.913513,125.072273 
	C243.359207,125.336052 241.710846,123.431274 241.737366,118.917358 
	C241.867477,96.756332 241.796249,74.594124 241.796143,52.432331 
	C241.796143,50.621204 241.796143,48.810078 241.796143,46.271107 
	C238.347977,46.271107 235.251984,46.201748 232.160431,46.289337 
	C228.600845,46.390186 226.937256,44.744965 226.968369,41.199455 
	C227.012207,36.200951 227.010193,31.201504 226.968124,26.202963 
	C226.938370,22.670422 228.656448,20.994204 232.150681,20.998026 
	C241.026337,21.007738 247.565018,17.017632 252.743027,9.860985 
	C255.072693,6.641099 258.657562,4.329385 261.836426,1.302795 
	C262.444458,1.000000 262.888885,1.000000 263.666687,1.000000 
z"/>
<path fill="#565E82" opacity="1.000000" stroke="none" 
	d="
M1.000000,23.468658 
	C1.164603,23.050287 1.329207,23.100573 1.756737,23.514824 
	C1.953149,56.672218 1.886634,89.465652 1.820120,122.259079 
	C1.820120,122.259079 1.343993,122.338676 1.171996,122.169342 
	C1.000000,89.312439 1.000000,56.624878 1.000000,23.468658 
z"/>
<path fill="#56C2F0" opacity="1.000000" stroke="none" 
	d="
M347.491943,24.357685 
	C349.096405,25.594316 350.396881,26.627474 351.968353,27.875954 
	C353.058685,27.043188 354.167786,26.114292 355.356262,25.301470 
	C363.995819,19.392744 373.120392,18.140642 382.719391,22.724073 
	C392.774902,27.525517 397.609283,35.909370 397.717773,46.728809 
	C397.956726,70.554466 397.779297,94.384171 397.808716,118.212181 
	C397.813690,122.252113 396.355988,124.447495 391.887146,124.199699 
	C387.401947,123.950989 382.880310,123.940994 378.396362,124.200790 
	C373.532135,124.482613 371.969543,122.306404 371.993469,117.675293 
	C372.103607,96.347527 372.028564,75.018723 371.990540,53.690338 
	C371.979706,47.604382 369.845520,45.568180 363.834290,45.731510 
	C358.611023,45.873432 356.762024,47.840775 356.748169,53.749031 
	C356.698914,74.744263 356.736237,95.739693 356.722595,116.735031 
	C356.718109,123.634544 356.103241,124.248238 349.422485,124.267357 
	C345.423401,124.278809 341.409485,124.053337 337.428925,124.325317 
	C332.610199,124.654579 330.957550,122.626633 330.985718,117.908585 
	C331.113953,96.414406 331.035217,74.918823 330.983795,53.423859 
	C330.970642,47.925529 328.827881,45.834915 323.474609,45.801983 
	C317.743561,45.766724 315.753754,47.688633 315.740906,53.667332 
	C315.696930,74.162689 315.727936,94.658211 315.726532,115.153671 
	C315.725922,124.097206 315.675873,124.144081 306.884735,124.145828 
	C303.385498,124.146523 299.873505,123.955971 296.390137,124.190948 
	C291.543152,124.517914 289.967590,122.322998 289.991180,117.673615 
	C290.115540,93.179672 290.049347,68.684761 290.049286,44.190189 
	C290.049286,38.691406 290.028656,33.192524 290.054993,27.693869 
	C290.083435,21.756683 290.849152,20.966812 296.598816,20.925032 
	C300.764343,20.894760 304.937775,21.073580 309.093719,20.871862 
	C312.668060,20.698372 315.417755,21.410263 315.952423,25.866541 
	C326.325226,18.848698 336.614990,17.931025 347.491943,24.357685 
z"/>
<path fill="#243367" opacity="1.000000" stroke="none" 
	d="
M74.181969,76.051064 
	C76.128571,64.710907 83.042336,57.276024 94.140030,55.553860 
	C99.347740,54.745716 104.762711,55.375519 110.038528,54.875999 
	C115.601700,54.349270 116.698341,51.019913 112.907875,45.230473 
	C104.001945,44.654106 95.527573,44.736313 87.053207,44.818520 
	C86.289268,44.259964 84.880920,43.724339 84.860100,43.139332 
	C84.626900,36.586800 84.504120,30.024084 84.667099,23.471958 
	C84.686508,22.691788 86.590729,21.286997 87.600510,21.305496 
	C99.355537,21.520864 111.265144,20.898952 122.812874,22.634388 
	C133.764557,24.280249 140.864090,34.073174 140.773438,46.702915 
	C140.653793,47.462238 140.755005,47.719067 140.856216,47.975891 
	C140.909393,69.683784 140.962585,91.391670 140.787201,113.645950 
	C140.502533,114.289780 140.374878,114.433174 140.402802,114.476662 
	C140.518616,114.657028 140.681396,114.807236 140.826935,114.968513 
	C139.981308,119.172050 137.458084,121.994423 132.944885,123.496651 
	C122.120438,123.175095 111.965187,123.033875 101.809998,123.038086 
	C99.555588,123.039024 97.301384,123.552811 95.047089,123.830460 
	C82.801064,122.074272 77.176193,116.690376 74.368805,103.029877 
	C74.525703,93.574600 74.353836,84.812836 74.181969,76.051064 
M99.609886,91.399521 
	C99.624130,92.229790 99.632118,93.060211 99.653587,93.890297 
	C99.839104,101.065750 100.169815,101.383888 107.432922,101.388573 
	C108.263412,101.389114 109.094604,101.364693 109.924271,101.390411 
	C113.604538,101.504494 115.518761,99.884888 115.404915,96.047821 
	C115.316284,93.060730 115.391701,90.068825 115.390434,87.079063 
	C115.386818,78.558792 115.202003,78.373108 106.786865,78.398560 
	C100.324471,78.418114 99.785851,78.963959 99.697418,85.561493 
	C99.675156,87.222115 99.639687,88.882545 99.609886,91.399521 
z"/>
<path fill="#243367" opacity="1.000000" stroke="none" 
	d="
M159.165344,122.967468 
	C158.862930,116.086090 158.306870,109.197037 158.514908,102.331123 
	C158.548462,101.223518 161.938217,99.419670 163.854507,99.310921 
	C170.653473,98.925041 177.486450,99.162560 184.306030,99.104836 
	C187.566193,99.077248 191.807312,99.739182 191.736938,94.886269 
	C191.672348,90.431396 187.684937,91.034904 184.538315,90.967575 
	C180.388657,90.878777 176.193909,91.016052 172.102844,90.448448 
	C162.461441,89.110779 155.658401,83.877480 152.268921,74.079453 
	C152.291779,71.842949 151.930054,70.238182 151.929474,68.633286 
	C151.923935,53.115631 151.979034,37.597950 152.016800,22.080280 
	C158.898941,21.770742 165.791321,21.180449 172.653015,21.430904 
	C173.782944,21.472149 175.623672,25.174139 175.692719,27.232706 
	C176.032913,37.375660 175.945053,47.535290 175.881775,57.688251 
	C175.858826,61.370773 175.661652,66.167915 180.068405,66.077042 
	C183.678162,66.002617 189.010544,67.763695 191.962280,61.965549 
	C192.646652,48.474579 192.766434,35.500858 192.886200,22.527134 
	C194.346527,22.016989 195.791702,21.125698 197.269974,21.066925 
	C202.036102,20.877436 206.827744,20.790939 211.580948,21.101927 
	C213.288254,21.213627 214.914291,22.567713 216.414001,24.048536 
	C216.167999,49.058243 216.077896,73.374199 216.038055,97.690239 
	C216.036819,98.444313 216.556595,99.199234 216.833466,99.953766 
	C216.055740,112.391907 210.379776,119.515976 197.032654,123.698364 
	C183.939514,123.306854 171.552414,123.137161 159.165344,122.967468 
z"/>
<path fill="#243367" opacity="1.000000" stroke="none" 
	d="
M1.896478,122.681107 
	C1.886634,89.465652 1.953149,56.672218 1.991164,23.406677 
	C3.699043,22.282528 5.427953,21.089684 7.173004,21.065584 
	C19.155836,20.900099 31.150316,21.253256 43.124516,20.891825 
	C52.484280,20.609306 64.665886,28.675690 66.551292,39.002045 
	C66.188507,49.050797 66.029366,58.420429 66.041740,67.789833 
	C66.045334,70.512177 66.539566,73.233871 66.808891,75.955864 
	C63.556473,87.579239 55.911152,93.568062 43.643959,93.903824 
	C38.168488,94.053696 32.685501,93.929153 26.529144,93.929153 
	C26.529144,102.485222 26.529144,110.755859 26.068222,119.687752 
	C25.437702,121.329803 25.268105,122.310600 25.098507,123.291382 
	C17.389952,123.228638 9.681394,123.165894 1.896478,122.681107 
M42.006126,57.486057 
	C42.006001,46.088524 39.156982,44.125809 26.700008,47.272785 
	C26.700008,50.972385 26.700012,54.764549 26.700005,58.556709 
	C26.699986,70.026016 26.694944,69.991844 37.710476,68.366493 
	C40.683624,67.927795 42.118546,66.416122 42.014343,63.399849 
	C41.957165,61.744835 42.005413,60.086170 42.006126,57.486057 
z"/>
<path fill="#424E7A" opacity="1.000000" stroke="none" 
	d="
M151.646744,22.208973 
	C151.979034,37.597950 151.923935,53.115631 151.929474,68.633286 
	C151.930054,70.238182 152.291779,71.842949 152.255615,73.720131 
	C151.403900,70.783455 150.301193,67.582626 150.246399,64.363960 
	C150.034775,51.934353 150.117950,39.498775 150.205521,27.066225 
	C150.216644,25.487604 150.903107,23.913736 151.646744,22.208973 
z"/>
<path fill="#001359" opacity="1.000000" stroke="none" 
	d="
M216.906433,99.493126 
	C216.556595,99.199234 216.036819,98.444313 216.038055,97.690239 
	C216.077896,73.374199 216.167999,49.058243 216.493011,24.416645 
	C216.816742,49.071503 216.898071,74.051994 216.906433,99.493126 
z"/>
<path fill="#42507C" opacity="1.000000" stroke="none" 
	d="
M159.300018,123.325989 
	C171.552414,123.137161 183.939514,123.306854 196.663025,123.711708 
	C185.233536,124.187859 173.467911,124.447701 161.701019,124.625626 
	C160.950500,124.636971 160.190353,124.012955 159.300018,123.325989 
z"/>
<path fill="#0A205E" opacity="1.000000" stroke="none" 
	d="
M192.523041,22.815006 
	C192.766434,35.500858 192.646652,48.474579 192.197357,61.709171 
	C191.965164,49.014320 192.062515,36.058598 192.523041,22.815006 
z"/>
<path fill="#001458" opacity="1.000000" stroke="none" 
	d="
M95.506927,123.909134 
	C97.301384,123.552811 99.555588,123.039024 101.809998,123.038086 
	C111.965187,123.033875 122.120438,123.175095 132.597198,123.513763 
	C120.601395,123.838364 108.284081,123.913086 95.506927,123.909134 
z"/>
<path fill="#0C225E" opacity="1.000000" stroke="none" 
	d="
M66.921349,75.501373 
	C66.539566,73.233871 66.045334,70.512177 66.041740,67.789833 
	C66.029366,58.420429 66.188507,49.050797 66.547562,39.367874 
	C66.886490,51.051964 66.960152,63.049427 66.921349,75.501373 
z"/>
<path fill="#001458" opacity="1.000000" stroke="none" 
	d="
M74.097878,76.509773 
	C74.353836,84.812836 74.525703,93.574600 74.423233,102.643059 
	C74.103859,94.289322 74.058823,85.628906 74.097878,76.509773 
z"/>
<path fill="#001458" opacity="1.000000" stroke="none" 
	d="
M87.506989,44.928040 
	C95.527573,44.736313 104.001945,44.654106 112.710999,44.924385 
	C104.617386,45.197105 96.289078,45.117329 87.506989,44.928040 
z"/>
<path fill="#152860" opacity="1.000000" stroke="none" 
	d="
M25.441517,123.099846 
	C25.268105,122.310600 25.437702,121.329803 25.923067,120.132431 
	C26.087400,120.913338 25.935965,121.910820 25.441517,123.099846 
z"/>
<path fill="#0E245F" opacity="1.000000" stroke="none" 
	d="
M140.912125,47.739288 
	C140.755005,47.719067 140.653793,47.462238 140.700562,47.118389 
	C140.848526,47.031364 140.968033,47.502686 140.912125,47.739288 
z"/>
<path fill="#0E245F" opacity="1.000000" stroke="none" 
	d="
M140.896484,114.735474 
	C140.681396,114.807236 140.518616,114.657028 140.402802,114.476662 
	C140.374878,114.433174 140.502533,114.289780 140.707596,114.110428 
	C140.856537,114.028526 140.966049,114.502434 140.896484,114.735474 
z"/>
<path fill="#FBFBFC" opacity="1.000000" stroke="none" 
	d="
M99.610085,90.971298 
	C99.639687,88.882545 99.675156,87.222115 99.697418,85.561493 
	C99.785851,78.963959 100.324471,78.418114 106.786865,78.398560 
	C115.202003,78.373108 115.386818,78.558792 115.390434,87.079063 
	C115.391701,90.068825 115.316284,93.060730 115.404915,96.047821 
	C115.518761,99.884888 113.604538,101.504494 109.924271,101.390411 
	C109.094604,101.364693 108.263412,101.389114 107.432922,101.388573 
	C100.169815,101.383888 99.839104,101.065750 99.653587,93.890297 
	C99.632118,93.060211 99.624130,92.229790 99.610085,90.971298 
z"/>
<path fill="#FBFBFC" opacity="1.000000" stroke="none" 
	d="
M42.006126,57.957603 
	C42.005413,60.086170 41.957165,61.744835 42.014343,63.399849 
	C42.118546,66.416122 40.683624,67.927795 37.710476,68.366493 
	C26.694944,69.991844 26.699986,70.026016 26.700005,58.556709 
	C26.700012,54.764549 26.700008,50.972385 26.700008,47.272785 
	C39.156982,44.125809 42.006001,46.088524 42.006126,57.957603 
z"/>
</svg>