<?xml version="1.0" encoding="UTF-8"?>
<svg version="1.1" xmlns="http://www.w3.org/2000/svg" width="512" height="512">
<path d="M0 0 C0.88197591 -0.00538554 1.76395182 -0.01077108 2.67265427 -0.01631981 C5.60419061 -0.03053495 8.53527129 -0.02351164 11.46682739 -0.01637268 C13.57836264 -0.02207964 15.6898948 -0.02904516 17.80142212 -0.03717041 C23.52049828 -0.05508147 29.23942083 -0.05393718 34.9585166 -0.04822803 C39.73971409 -0.04513302 44.5208822 -0.05123215 49.30207551 -0.05726677 C60.58520786 -0.07130384 71.86826448 -0.06975766 83.15139771 -0.05836487 C94.77633563 -0.04688604 106.40104279 -0.06095737 118.02595031 -0.08776134 C128.02114192 -0.1099414 138.01626122 -0.11655046 148.01147568 -0.11068493 C153.97479729 -0.10731951 159.937971 -0.10970296 165.90127182 -0.12693596 C171.51072549 -0.14243951 177.1198382 -0.13841147 182.72927856 -0.11963081 C184.78228822 -0.11595432 186.83532333 -0.11902585 188.88830948 -0.1295166 C204.45970683 -0.202982 217.11369645 1.26986164 228.95169067 12.4228363 C238.57086643 22.61736462 242.08649563 33.80499901 242.09793091 47.59178162 C242.10625443 48.46288574 242.11457794 49.33398987 242.12315369 50.23149109 C242.14704382 53.08047578 242.15599584 55.92923118 242.16262817 58.77830505 C242.17160401 60.77128666 242.18072602 62.76426762 242.18998718 64.75724792 C242.2064179 68.91955702 242.21416762 73.08178618 242.21707153 77.24412537 C242.22247756 82.57630563 242.26027421 87.90773637 242.3058157 93.23970413 C242.33554085 97.34895084 242.34279395 101.45801503 242.34379768 105.56735992 C242.34800186 107.53376991 242.36044406 109.50018035 242.38131523 111.46648407 C242.40816139 114.2119424 242.40342701 116.95563423 242.39089966 119.70115662 C242.41315109 120.91533264 242.41315109 120.91533264 242.43585205 122.15403748 C242.38079805 126.38947588 242.12463367 127.95635777 239.4415741 131.43058777 C236.79153442 133.38768005 236.79153442 133.38768005 233.79153442 133.38768005 C233.79153442 140.31768005 233.79153442 147.24768005 233.79153442 154.38768005 C235.67439148 154.38101822 237.55724854 154.37435638 239.49716187 154.36749268 C257.21413846 154.30676036 274.93109405 154.26156522 292.6481514 154.23224354 C301.75734891 154.21676749 310.86646878 154.19566391 319.97561646 154.16136169 C327.91414623 154.13148189 335.85261977 154.11211042 343.79120421 154.10541457 C347.99555022 154.10149989 352.19973535 154.09228463 356.40402985 154.07048988 C360.36024182 154.05014709 364.31622643 154.04384174 368.27248573 154.04835701 C369.72534482 154.04753082 371.17821141 154.0415519 372.63102531 154.03006363 C374.61328523 154.01515591 376.59566679 154.02050993 378.57797241 154.0269165 C379.68781116 154.02415112 380.79764992 154.02138575 381.94112015 154.01853657 C385.15524285 154.43478219 386.50957521 155.11826106 388.79153442 157.38768005 C389.99039533 160.98426279 389.93638987 164.26048019 389.93197632 168.00386047 C389.936433 169.17847672 389.936433 169.17847672 389.94097972 170.37682259 C389.94967355 173.00919597 389.95117554 175.64152391 389.95266724 178.27391052 C389.95729488 180.15784299 389.96231947 182.04177452 389.9677124 183.92570496 C389.9808425 189.0496662 389.98728241 194.17361434 389.99172306 199.29758978 C389.99465245 202.49724982 389.99875697 205.69690625 390.00322723 208.89656448 C390.01690299 218.90305848 390.0265696 228.90954428 390.03042912 238.91604698 C390.03491197 250.47572204 390.05247009 262.03527899 390.08142972 273.59491813 C390.10302677 282.52492163 390.11313233 291.45489185 390.11447024 300.38492119 C390.11551957 305.72102974 390.12145473 311.05702726 390.13928986 316.39310837 C390.15573664 321.41144632 390.15794257 326.42958938 390.14915085 331.44794464 C390.14837869 333.29061784 390.15274671 335.13330137 390.1626091 336.97594833 C390.17527705 339.4900433 390.16948014 342.0034426 390.1590271 344.51753235 C390.17111171 345.61320961 390.17111171 345.61320961 390.18344045 346.73102176 C390.140771 351.11408149 389.48881198 353.90146601 386.79153442 357.38768005 C384.05304423 358.75692515 381.88499943 358.51047729 378.81848145 358.50793457 C376.90855156 358.50999657 376.90855156 358.50999657 374.96003723 358.51210022 C373.54107643 358.50856083 372.12211586 358.50492602 370.70315552 358.50120544 C369.21519472 358.5009235 367.72723379 358.50108145 366.23927307 358.50164795 C362.19198781 358.50193564 358.144732 358.4960435 354.09745359 358.48907399 C349.87069567 358.48283572 345.64393711 358.48223628 341.41717529 358.48104858 C333.40968516 358.47793667 325.40220863 358.46972515 317.39472449 358.45969909 C308.27998036 358.44853363 299.16523559 358.44302641 290.05048633 358.43800366 C271.29749442 358.42754243 252.54451601 358.40974497 233.79153442 358.38768005 C233.79153442 365.31768005 233.79153442 372.24768005 233.79153442 379.38768005 C235.44153442 379.71768005 237.09153442 380.04768005 238.79153442 380.38768005 C242.36906803 384.44350432 242.21896502 388.80003603 242.17971802 393.95066833 C242.18760345 395.22736137 242.18760345 395.22736137 242.19564819 396.52984619 C242.20883369 399.33941599 242.20011052 402.14841711 242.18997192 404.95799255 C242.1919942 406.91989754 242.19490691 408.8818018 242.19866943 410.84370422 C242.20309177 414.95771942 242.19666874 419.07153916 242.18264771 423.18553162 C242.16562361 428.43412054 242.1753545 433.6822469 242.1933651 438.93081856 C242.20426326 442.98542187 242.2007279 447.03991763 242.19298172 451.09452438 C242.19099282 453.02802969 242.19339248 454.96154505 242.20042038 456.8950386 C242.24951586 474.21053252 240.54115572 487.9743547 228.28372192 501.0556488 C219.6298774 509.15336852 209.29746664 512.86263146 197.58306885 512.77536011 C196.70109294 512.78074565 195.81911703 512.78613118 194.91041458 512.79167992 C191.97887823 512.80589506 189.04779756 512.79887174 186.11624146 512.79173279 C184.00470621 512.79743974 181.89317405 512.80440526 179.78164673 512.81253052 C174.06257057 512.83044158 168.34364801 512.82929728 162.62455225 512.82358813 C157.84335476 512.82049313 153.06218665 512.82659226 148.28099334 512.83262688 C136.99786099 512.84666395 125.71480436 512.84511777 114.43167114 512.83372498 C102.80673321 512.82224615 91.18202606 512.83631748 79.55711854 512.86312145 C69.56192692 512.88530151 59.56680763 512.89191057 49.57159317 512.88604504 C43.60827156 512.88267961 37.64509785 512.88506307 31.68179703 512.90229607 C26.07234336 512.91779962 20.46323065 512.91377158 14.85379028 512.89499092 C12.80078063 512.89131442 10.74774551 512.89438596 8.69475937 512.90487671 C-6.92967864 512.97859235 -19.42281205 511.44781497 -31.36862183 500.38768005 C-40.28571546 491.0538998 -44.45199453 479.44906029 -44.46573448 466.6304369 C-44.46924056 465.88896997 -44.47274663 465.14750304 -44.47635895 464.38356742 C-44.48563224 461.90926112 -44.48076023 459.4351923 -44.47589111 456.96087646 C-44.47962943 455.16482213 -44.48423168 453.36876942 -44.48962176 451.57271928 C-44.5018448 446.64478717 -44.5015921 441.71692298 -44.49923301 436.78897917 C-44.49882466 431.47115575 -44.50986569 426.15335405 -44.51934814 420.83554077 C-44.5359555 410.41947407 -44.54145758 400.00343001 -44.5425729 389.58735118 C-44.54352353 381.11940015 -44.5476346 372.65145659 -44.55397415 364.18350792 C-44.57158612 340.16946055 -44.58081313 316.15543106 -44.5793132 292.14137719 C-44.57923329 290.84698575 -44.57915338 289.55259431 -44.57907104 288.21897888 C-44.57898928 286.92300489 -44.57890752 285.6270309 -44.57882328 284.29178496 C-44.57801048 263.29130063 -44.59714691 242.29088803 -44.62534778 221.29042444 C-44.65408312 199.7215566 -44.6678877 178.15272373 -44.66616023 156.58383626 C-44.66549653 144.47688371 -44.67097979 132.37000636 -44.69251633 120.26307106 C-44.71073667 109.95436846 -44.71506841 99.64577515 -44.70149748 89.33706341 C-44.6949721 84.07975401 -44.69483524 78.82265423 -44.71220398 73.56536484 C-44.72795859 68.74699117 -44.72504657 63.92899291 -44.70763572 59.11062827 C-44.70457109 57.37309544 -44.70817783 55.63553442 -44.71935587 53.89803485 C-44.80967075 38.85620134 -42.68254699 24.18765862 -32.02096558 12.70018005 C-22.96135418 4.23013122 -12.31345348 -0.09173427 0 0 Z " fill="#D6E8FE" transform="translate(83.20846557617188,-0.3876800537109375)"/>
<path d="M0 0 C0.66 -0.01289062 1.32 -0.02578125 2 -0.0390625 C5.15019055 1.0068992 6.20603336 2.88677972 8 5.625 C8.45410156 8.9465332 8.45410156 8.9465332 8.390625 12.67578125 C8.38496521 13.33458786 8.37930542 13.99339447 8.37347412 14.67216492 C8.35121239 16.76137216 8.3010433 18.84881773 8.25 20.9375 C8.22992144 22.36000114 8.21167304 23.78252937 8.1953125 25.20507812 C8.15138359 28.6789508 8.08243096 32.15180325 8 35.625 C8.58672068 35.62386084 9.17344137 35.62272168 9.77794147 35.621548 C44.53275156 35.55444969 79.28754875 35.50295851 114.04240982 35.47180401 C118.21316916 35.46805178 122.38392836 35.46416882 126.5546875 35.46020508 C127.38502916 35.45941815 128.21537083 35.45863122 129.07087436 35.45782044 C142.52503403 35.44475774 155.97915534 35.42109915 169.43329224 35.39354161 C183.2330206 35.36551143 197.03272883 35.3488288 210.83248448 35.34273452 C219.35132581 35.33861311 227.87005873 35.32558451 236.38886669 35.3012506 C242.22632206 35.28542286 248.06372117 35.2805929 253.90119645 35.28449587 C257.27185227 35.28642208 260.64216491 35.28179157 264.01281357 35.26738358 C267.66370474 35.25253801 271.31412563 35.25601768 274.96502686 35.26423645 C276.03505912 35.25549793 277.10509138 35.2467594 278.20754886 35.23775607 C279.18389702 35.24372922 280.16024518 35.24970236 281.16617966 35.25585651 C282.00915879 35.25471735 282.85213792 35.25357819 283.72066188 35.25240451 C286.56166178 35.7168129 287.92061712 36.65896315 290 38.625 C291.19886091 42.22158273 291.14485544 45.49780014 291.14044189 49.24118042 C291.14489858 50.41579667 291.14489858 50.41579667 291.1494453 51.61414254 C291.15813913 54.24651592 291.15964111 56.87884386 291.16113281 59.51123047 C291.16576046 61.39516294 291.17078504 63.27909447 291.17617798 65.1630249 C291.18930808 70.28698615 291.19574798 75.41093428 291.20018864 80.53490973 C291.20311803 83.73456976 291.20722255 86.9342262 291.21169281 90.13388443 C291.22536857 100.14037843 291.23503517 110.14686423 291.2388947 120.15336692 C291.24337755 131.71304199 291.26093567 143.27259894 291.2898953 154.83223808 C291.31149235 163.76224158 291.3215979 172.69221179 291.32293582 181.62224114 C291.32398515 186.95834969 291.3299203 192.29434721 291.34775543 197.63042831 C291.36420221 202.64876627 291.36640814 207.66690933 291.35761642 212.68526459 C291.35684426 214.52793778 291.36121229 216.37062131 291.37107468 218.21326828 C291.38374262 220.72736325 291.37794572 223.24076255 291.36749268 225.75485229 C291.37957728 226.85052955 291.37957728 226.85052955 291.39190602 227.96834171 C291.34923657 232.35140143 290.69727756 235.13878596 288 238.625 C285.59245698 239.82877151 284.10151214 239.74925811 281.41227531 239.74804783 C280.43990925 239.75003888 279.46754318 239.75202993 278.46571147 239.75408131 C277.38985353 239.75116847 276.31399559 239.74825563 275.20553589 239.74525452 C274.06859948 239.74610894 272.93166308 239.74696337 271.76027405 239.74784368 C267.92463967 239.74949973 264.08904837 239.74397505 260.25341797 239.73852539 C257.51424125 239.7376877 254.7750654 239.73835715 252.03588867 239.7389679 C246.12527897 239.73949304 240.21468027 239.73634723 234.30407333 239.73073006 C225.75825771 239.72261378 217.21244743 239.7199997 208.66662838 239.71874207 C194.80265157 239.71655175 180.93868064 239.70989221 167.07470703 239.70043945 C153.60465525 239.69126481 140.13460506 239.68418423 126.66455078 239.67993164 C125.83469146 239.67966892 125.00483213 239.67940619 124.14982556 239.67913551 C119.98679503 239.6778305 115.82376449 239.67656679 111.66073394 239.67532361 C77.10715177 239.66495162 42.55357643 239.64733385 8 239.625 C8.02094727 240.24020508 8.04189453 240.85541016 8.06347656 241.48925781 C8.14677017 244.28433809 8.19870013 247.07915715 8.25 249.875 C8.30027344 251.32712891 8.30027344 251.32712891 8.3515625 252.80859375 C8.4503868 259.97335575 8.4503868 259.97335575 6.19921875 263.23046875 C3.01335026 265.25063758 0.76925748 265.69112732 -3 265.625 C-5.88037945 263.62483087 -7.70182743 262.01455618 -8.457883 258.49115467 C-8.64475722 255.77462509 -8.66126925 253.09946605 -8.62818909 250.37658691 C-8.63528347 249.33453677 -8.64237786 248.29248662 -8.64968723 247.2188592 C-8.66731103 243.72170456 -8.649139 240.22565485 -8.63110352 236.72851562 C-8.63624062 234.22360222 -8.64352031 231.71869243 -8.65278625 229.21379089 C-8.66940775 223.11323563 -8.66264808 217.01309106 -8.64469803 210.91255128 C-8.63067315 205.95464274 -8.62677897 200.99682114 -8.6301403 196.03889465 C-8.63061775 195.3332986 -8.63109519 194.62770255 -8.6315871 193.9007248 C-8.63261343 192.4673261 -8.63366879 191.03392743 -8.63475286 189.60052878 C-8.64332076 176.92519078 -8.6266421 164.2500074 -8.59692383 151.57470703 C-8.56808616 139.27483627 -8.56100272 126.97518827 -8.57641602 114.67529297 C-8.59317649 101.28199243 -8.59721398 87.88879766 -8.57970566 74.49549437 C-8.57786126 73.06736471 -8.57602654 71.63923503 -8.57420158 70.21110535 C-8.57328949 69.50843573 -8.5723774 68.80576611 -8.57143768 68.08180347 C-8.56583131 63.12977894 -8.56914038 58.17780604 -8.57574654 53.2257843 C-8.58428474 46.56086753 -8.57132501 39.89632012 -8.54389763 33.23143959 C-8.53699923 30.78245817 -8.5369313 28.33344678 -8.54411316 25.88446617 C-8.55277398 22.54708708 -8.53690762 19.21070835 -8.5146637 15.87341309 C-8.52290446 14.89919608 -8.53114523 13.92497907 -8.53963572 12.92124033 C-8.48653327 8.61862095 -8.38981337 6.25842146 -6.09283352 2.52597809 C-3.84592302 0.48504765 -2.99035536 -0.05840538 0 0 Z " fill="#92BFFE" transform="translate(182,118.375)"/>
<path d="M0 0 C0.88197591 -0.00538554 1.76395182 -0.01077108 2.67265427 -0.01631981 C5.60419061 -0.03053495 8.53527129 -0.02351164 11.46682739 -0.01637268 C13.57836264 -0.02207964 15.6898948 -0.02904516 17.80142212 -0.03717041 C23.52049828 -0.05508147 29.23942083 -0.05393718 34.9585166 -0.04822803 C39.73971409 -0.04513302 44.5208822 -0.05123215 49.30207551 -0.05726677 C60.58520786 -0.07130384 71.86826448 -0.06975766 83.15139771 -0.05836487 C94.77633563 -0.04688604 106.40104279 -0.06095737 118.02595031 -0.08776134 C128.02114192 -0.1099414 138.01626122 -0.11655046 148.01147568 -0.11068493 C153.97479729 -0.10731951 159.937971 -0.10970296 165.90127182 -0.12693596 C171.51072549 -0.14243951 177.1198382 -0.13841147 182.72927856 -0.11963081 C184.78228822 -0.11595432 186.83532333 -0.11902585 188.88830948 -0.1295166 C204.45970683 -0.202982 217.11369645 1.26986164 228.95169067 12.4228363 C238.57086643 22.61736462 242.08649563 33.80499901 242.09793091 47.59178162 C242.10625443 48.46288574 242.11457794 49.33398987 242.12315369 50.23149109 C242.14704382 53.08047578 242.15599584 55.92923118 242.16262817 58.77830505 C242.17160401 60.77128666 242.18072602 62.76426762 242.18998718 64.75724792 C242.2064179 68.91955702 242.21416762 73.08178618 242.21707153 77.24412537 C242.22247756 82.57630563 242.26027421 87.90773637 242.3058157 93.23970413 C242.33554085 97.34895084 242.34279395 101.45801503 242.34379768 105.56735992 C242.34800186 107.53376991 242.36044406 109.50018035 242.38131523 111.46648407 C242.40816139 114.2119424 242.40342701 116.95563423 242.39089966 119.70115662 C242.41315109 120.91533264 242.41315109 120.91533264 242.43585205 122.15403748 C242.38090849 126.38097999 242.13805431 127.94416376 239.4415741 131.39543152 C236.79153442 133.38768005 236.79153442 133.38768005 233.79153442 133.95018005 C230.13245938 133.26410348 228.43985767 131.96033692 225.79153442 129.38768005 C224.17435647 126.15332414 224.65644458 122.61073332 224.66555786 119.05760193 C224.66275566 117.76452621 224.66275566 117.76452621 224.65989685 116.44532776 C224.6558866 114.56830139 224.65381744 112.69127012 224.65343475 110.8142395 C224.65002141 106.81634063 224.62865485 102.8186047 224.60820389 98.82076263 C224.5702006 91.37527429 224.53891192 83.92995608 224.54104614 76.48435974 C224.54183596 71.30764322 224.51834863 66.13151803 224.47916412 60.95495605 C224.4687381 58.98715884 224.46715491 57.01929308 224.47481537 55.05148315 C224.71296863 38.90860039 224.71296863 38.90860039 216.83126831 25.27085876 C209.11071654 17.68183648 200.77349705 16.90848649 190.40872192 16.84861755 C189.23568512 16.83626068 188.06264832 16.82390381 186.85406494 16.81117249 C184.38486693 16.7916766 181.91559201 16.78038663 179.44631958 16.77684021 C175.67076178 16.76269589 171.89846362 16.69522098 168.12356567 16.6259613 C165.71863241 16.61356897 163.31368029 16.60434616 160.90872192 16.59861755 C159.78360199 16.57189972 158.65848206 16.54518188 157.49926758 16.51765442 C151.76578925 16.4652724 151.76578925 16.4652724 146.77560425 18.91101074 C145.25113355 20.66735826 144.00571814 22.40815885 142.79153442 24.38768005 C142.16247192 25.21654724 141.53340942 26.04541443 140.88528442 26.8993988 C140.35934692 27.61740662 139.83340942 28.33541443 139.29153442 29.07518005 C134.79870844 34.86856093 130.00999589 37.97522927 122.79153442 39.38768005 C119.25292441 39.68652497 115.72818689 39.71539232 112.17825317 39.72361755 C111.16866043 39.73027435 110.15906769 39.73693115 109.11888123 39.74378967 C106.99000866 39.75388014 104.8611047 39.75860781 102.73220825 39.75828552 C99.49949217 39.76265242 96.26814951 39.79899421 93.03567505 39.8368988 C90.95820571 39.8427692 88.88072995 39.8467371 86.80325317 39.84861755 C85.84875778 39.86298859 84.89426239 39.87735962 83.9108429 39.89216614 C74.39831457 39.82837867 66.66861727 36.98825431 59.67825317 30.46580505 C56.84846222 27.34893386 54.5270392 23.95257345 52.23684692 20.42674255 C50.94860284 18.26992424 50.94860284 18.26992424 48.79153442 17.38768005 C47.1137289 17.27695143 45.43163538 17.22851938 43.75027466 17.2106781 C42.69835434 17.19784286 41.64643402 17.18500763 40.56263733 17.17178345 C38.8486953 17.16070305 38.8486953 17.16070305 37.10012817 17.1493988 C35.33851097 17.13729118 35.33851097 17.13729118 33.54130554 17.12493896 C31.0488025 17.11108513 28.55628039 17.10036882 26.06375122 17.09251404 C22.26886395 17.07536009 18.47486103 17.03149085 14.6802063 16.98728943 C12.25768666 16.97715747 9.83515961 16.96864295 7.41262817 16.9618988 C6.28416977 16.94439072 5.15571136 16.92688263 3.99305725 16.90884399 C-4.70331218 16.93253316 -11.83267448 18.77484195 -18.52096558 24.57518005 C-19.13584839 25.08435974 -19.7507312 25.59353943 -20.38424683 26.1181488 C-27.35140906 34.78607441 -26.77515493 44.42770315 -26.71640015 54.9928894 C-26.72101208 56.79607285 -26.72736697 58.59925254 -26.73530912 60.4024244 C-26.75198546 65.34537464 -26.74376371 70.28801542 -26.73136425 75.23096669 C-26.72230912 80.56644912 -26.73628584 85.90187857 -26.74728394 91.23735046 C-26.76506912 101.68505975 -26.76122904 112.13265407 -26.74963337 122.58036786 C-26.74059886 131.07216383 -26.73937514 139.5639276 -26.74372864 148.05572701 C-26.74434157 149.26445323 -26.7449545 150.47317945 -26.74558601 151.71853374 C-26.74686491 154.17407163 -26.74816177 156.62960952 -26.74947637 159.08514739 C-26.7608823 182.110386 -26.7477685 205.13556091 -26.72627491 228.16078908 C-26.7084062 247.91426707 -26.71150617 267.66765103 -26.72994995 287.42112732 C-26.75136032 310.3625762 -26.75978127 333.30396924 -26.7475009 356.24542671 C-26.74622671 358.69222358 -26.74496922 361.13902045 -26.74372864 363.58581734 C-26.74311154 364.78967151 -26.74249443 365.99352569 -26.74185863 367.2338603 C-26.73840607 375.71420336 -26.74423212 384.19451098 -26.75364685 392.67484856 C-26.76487013 403.01143877 -26.76181984 413.3479075 -26.74052387 423.68448382 C-26.73001766 428.95762207 -26.72588445 434.23055782 -26.73912048 439.50369453 C-26.75105899 444.33298737 -26.74445758 449.16189042 -26.72321028 453.991148 C-26.7187504 455.73599435 -26.72099665 457.48087377 -26.73071343 459.22569876 C-26.78295616 469.38819794 -26.73151294 478.68285904 -20.13034058 487.0087738 C-19.05526245 487.9078949 -19.05526245 487.9078949 -17.95846558 488.82518005 C-17.25205933 489.44264099 -16.54565308 490.06010193 -15.81784058 490.6962738 C-9.54532103 494.76214351 -3.78974731 495.83193046 3.50683594 495.76863098 C4.34782746 495.77331095 5.18881899 495.77799093 6.05529511 495.78281271 C8.85409457 495.79471329 11.65239989 495.78532484 14.45120239 495.77586365 C16.46569096 495.7799316 18.4801773 495.78527474 20.49465942 495.79179382 C25.95341657 495.80544827 31.41200325 495.80017597 36.8707633 495.79065657 C42.59160151 495.78304822 48.31242536 495.79010904 54.03326416 495.79481506 C63.641679 495.80027007 73.25002463 495.79308859 82.85842896 495.77879333 C93.95335662 495.76247665 105.04811881 495.76774928 116.14304245 495.78427255 C125.68045046 495.79790575 135.21780878 495.79979782 144.75522339 495.79195654 C150.44630844 495.78728893 156.13731584 495.78662991 161.82839584 495.79656601 C167.18171139 495.80525973 172.53481459 495.79916978 177.8881073 495.78188324 C179.8480049 495.77793084 181.80792049 495.77903097 183.76781082 495.78567123 C200.8554104 496.29103286 200.8554104 496.29103286 215.66653442 488.82518005 C216.71454224 487.92605896 216.71454224 487.92605896 217.78372192 487.0087738 C224.77430179 477.882939 224.34451974 467.98079459 224.27738953 457.00076866 C224.26000134 454.07044162 224.26770123 451.14108991 224.28164673 448.21075439 C224.30687056 441.9988281 224.30149217 435.78713665 224.29153442 429.57518005 C224.27999706 422.35556727 224.28112991 415.13643209 224.31559753 407.91687965 C224.3226856 405.03335315 224.30602905 402.15058679 224.28848267 399.26712036 C224.29418924 397.50025523 224.30100589 395.73339322 224.30911255 393.96653748 C224.297798 393.16800858 224.28648346 392.36947968 224.27482605 391.54675293 C224.316133 387.7814514 224.64500861 385.61638664 226.69668579 382.41400146 C229.23621411 379.95754684 230.14190374 379.44416968 233.66653442 379.13768005 C237.13030822 379.41478196 238.36422671 379.96037234 240.79153442 382.38768005 C242.05882949 386.18956527 241.94715999 389.76189943 241.95266724 393.72361755 C241.95763214 394.57445419 241.96259705 395.42529083 241.9677124 396.3019104 C241.98233742 399.12217517 241.98913897 401.94238356 241.99465942 404.76268005 C242.00041354 406.72744243 242.00617124 408.6922048 242.01193237 410.65696716 C242.02244535 414.782865 242.02828511 418.90874336 242.0317688 423.03465271 C242.03723378 428.29894748 242.06121767 433.56298101 242.08974075 438.82719421 C242.10845456 442.89035264 242.11357752 446.95344948 242.11510468 451.01664734 C242.11811542 452.95574867 242.12609008 454.89484934 242.13928986 456.83390808 C242.24892947 474.18848015 240.5716904 487.94176769 228.28372192 501.0556488 C219.6298774 509.15336852 209.29746664 512.86263146 197.58306885 512.77536011 C196.70109294 512.78074565 195.81911703 512.78613118 194.91041458 512.79167992 C191.97887823 512.80589506 189.04779756 512.79887174 186.11624146 512.79173279 C184.00470621 512.79743974 181.89317405 512.80440526 179.78164673 512.81253052 C174.06257057 512.83044158 168.34364801 512.82929728 162.62455225 512.82358813 C157.84335476 512.82049313 153.06218665 512.82659226 148.28099334 512.83262688 C136.99786099 512.84666395 125.71480436 512.84511777 114.43167114 512.83372498 C102.80673321 512.82224615 91.18202606 512.83631748 79.55711854 512.86312145 C69.56192692 512.88530151 59.56680763 512.89191057 49.57159317 512.88604504 C43.60827156 512.88267961 37.64509785 512.88506307 31.68179703 512.90229607 C26.07234336 512.91779962 20.46323065 512.91377158 14.85379028 512.89499092 C12.80078063 512.89131442 10.74774551 512.89438596 8.69475937 512.90487671 C-6.92967864 512.97859235 -19.42281205 511.44781497 -31.36862183 500.38768005 C-40.28571546 491.0538998 -44.45199453 479.44906029 -44.46573448 466.6304369 C-44.46924056 465.88896997 -44.47274663 465.14750304 -44.47635895 464.38356742 C-44.48563224 461.90926112 -44.48076023 459.4351923 -44.47589111 456.96087646 C-44.47962943 455.16482213 -44.48423168 453.36876942 -44.48962176 451.57271928 C-44.5018448 446.64478717 -44.5015921 441.71692298 -44.49923301 436.78897917 C-44.49882466 431.47115575 -44.50986569 426.15335405 -44.51934814 420.83554077 C-44.5359555 410.41947407 -44.54145758 400.00343001 -44.5425729 389.58735118 C-44.54352353 381.11940015 -44.5476346 372.65145659 -44.55397415 364.18350792 C-44.57158612 340.16946055 -44.58081313 316.15543106 -44.5793132 292.14137719 C-44.57923329 290.84698575 -44.57915338 289.55259431 -44.57907104 288.21897888 C-44.57898928 286.92300489 -44.57890752 285.6270309 -44.57882328 284.29178496 C-44.57801048 263.29130063 -44.59714691 242.29088803 -44.62534778 221.29042444 C-44.65408312 199.7215566 -44.6678877 178.15272373 -44.66616023 156.58383626 C-44.66549653 144.47688371 -44.67097979 132.37000636 -44.69251633 120.26307106 C-44.71073667 109.95436846 -44.71506841 99.64577515 -44.70149748 89.33706341 C-44.6949721 84.07975401 -44.69483524 78.82265423 -44.71220398 73.56536484 C-44.72795859 68.74699117 -44.72504657 63.92899291 -44.70763572 59.11062827 C-44.70457109 57.37309544 -44.70817783 55.63553442 -44.71935587 53.89803485 C-44.80967075 38.85620134 -42.68254699 24.18765862 -32.02096558 12.70018005 C-22.96135418 4.23013122 -12.31345348 -0.09173427 0 0 Z " fill="#0F65E5" transform="translate(83.20846557617188,-0.3876800537109375)"/>
<path d="M0 0 C0.66 -0.01289062 1.32 -0.02578125 2 -0.0390625 C5.15019055 1.0068992 6.20603336 2.88677972 8 5.625 C8.45410156 8.9465332 8.45410156 8.9465332 8.390625 12.67578125 C8.38496521 13.33458786 8.37930542 13.99339447 8.37347412 14.67216492 C8.35121239 16.76137216 8.3010433 18.84881773 8.25 20.9375 C8.22992144 22.36000114 8.21167304 23.78252937 8.1953125 25.20507812 C8.15138359 28.6789508 8.08243096 32.15180325 8 35.625 C8.58672068 35.62386084 9.17344137 35.62272168 9.77794147 35.621548 C44.53275156 35.55444969 79.28754875 35.50295851 114.04240982 35.47180401 C118.21316916 35.46805178 122.38392836 35.46416882 126.5546875 35.46020508 C127.38502916 35.45941815 128.21537083 35.45863122 129.07087436 35.45782044 C142.52503403 35.44475774 155.97915534 35.42109915 169.43329224 35.39354161 C183.2330206 35.36551143 197.03272883 35.3488288 210.83248448 35.34273452 C219.35132581 35.33861311 227.87005873 35.32558451 236.38886669 35.3012506 C242.22632206 35.28542286 248.06372117 35.2805929 253.90119645 35.28449587 C257.27185227 35.28642208 260.64216491 35.28179157 264.01281357 35.26738358 C267.66370474 35.25253801 271.31412563 35.25601768 274.96502686 35.26423645 C276.03505912 35.25549793 277.10509138 35.2467594 278.20754886 35.23775607 C279.18389702 35.24372922 280.16024518 35.24970236 281.16617966 35.25585651 C282.00915879 35.25471735 282.85213792 35.25357819 283.72066188 35.25240451 C286.56166178 35.7168129 287.92061712 36.65896315 290 38.625 C291.19886091 42.22158273 291.14485544 45.49780014 291.14044189 49.24118042 C291.14489858 50.41579667 291.14489858 50.41579667 291.1494453 51.61414254 C291.15813913 54.24651592 291.15964111 56.87884386 291.16113281 59.51123047 C291.16576046 61.39516294 291.17078504 63.27909447 291.17617798 65.1630249 C291.18930808 70.28698615 291.19574798 75.41093428 291.20018864 80.53490973 C291.20311803 83.73456976 291.20722255 86.9342262 291.21169281 90.13388443 C291.22536857 100.14037843 291.23503517 110.14686423 291.2388947 120.15336692 C291.24337755 131.71304199 291.26093567 143.27259894 291.2898953 154.83223808 C291.31149235 163.76224158 291.3215979 172.69221179 291.32293582 181.62224114 C291.32398515 186.95834969 291.3299203 192.29434721 291.34775543 197.63042831 C291.36420221 202.64876627 291.36640814 207.66690933 291.35761642 212.68526459 C291.35684426 214.52793778 291.36121229 216.37062131 291.37107468 218.21326828 C291.38374262 220.72736325 291.37794572 223.24076255 291.36749268 225.75485229 C291.37957728 226.85052955 291.37957728 226.85052955 291.39190602 227.96834171 C291.34923657 232.35140143 290.69727756 235.13878596 288 238.625 C285.59245698 239.82877151 284.10151214 239.74925811 281.41227531 239.74804783 C280.43990925 239.75003888 279.46754318 239.75202993 278.46571147 239.75408131 C277.38985353 239.75116847 276.31399559 239.74825563 275.20553589 239.74525452 C274.06859948 239.74610894 272.93166308 239.74696337 271.76027405 239.74784368 C267.92463967 239.74949973 264.08904837 239.74397505 260.25341797 239.73852539 C257.51424125 239.7376877 254.7750654 239.73835715 252.03588867 239.7389679 C246.12527897 239.73949304 240.21468027 239.73634723 234.30407333 239.73073006 C225.75825771 239.72261378 217.21244743 239.7199997 208.66662838 239.71874207 C194.80265157 239.71655175 180.93868064 239.70989221 167.07470703 239.70043945 C153.60465525 239.69126481 140.13460506 239.68418423 126.66455078 239.67993164 C125.83469146 239.67966892 125.00483213 239.67940619 124.14982556 239.67913551 C119.98679503 239.6778305 115.82376449 239.67656679 111.66073394 239.67532361 C77.10715177 239.66495162 42.55357643 239.64733385 8 239.625 C8.02094727 240.24020508 8.04189453 240.85541016 8.06347656 241.48925781 C8.14677017 244.28433809 8.19870013 247.07915715 8.25 249.875 C8.30027344 251.32712891 8.30027344 251.32712891 8.3515625 252.80859375 C8.4503868 259.97335575 8.4503868 259.97335575 6.19921875 263.23046875 C3.01335026 265.25063758 0.76925748 265.69112732 -3 265.625 C-5.88037945 263.62483087 -7.70182743 262.01455618 -8.457883 258.49115467 C-8.64475722 255.77462509 -8.66126925 253.09946605 -8.62818909 250.37658691 C-8.63528347 249.33453677 -8.64237786 248.29248662 -8.64968723 247.2188592 C-8.66731103 243.72170456 -8.649139 240.22565485 -8.63110352 236.72851562 C-8.63624062 234.22360222 -8.64352031 231.71869243 -8.65278625 229.21379089 C-8.66940775 223.11323563 -8.66264808 217.01309106 -8.64469803 210.91255128 C-8.63067315 205.95464274 -8.62677897 200.99682114 -8.6301403 196.03889465 C-8.63061775 195.3332986 -8.63109519 194.62770255 -8.6315871 193.9007248 C-8.63261343 192.4673261 -8.63366879 191.03392743 -8.63475286 189.60052878 C-8.64332076 176.92519078 -8.6266421 164.2500074 -8.59692383 151.57470703 C-8.56808616 139.27483627 -8.56100272 126.97518827 -8.57641602 114.67529297 C-8.59317649 101.28199243 -8.59721398 87.88879766 -8.57970566 74.49549437 C-8.57786126 73.06736471 -8.57602654 71.63923503 -8.57420158 70.21110535 C-8.57328949 69.50843573 -8.5723774 68.80576611 -8.57143768 68.08180347 C-8.56583131 63.12977894 -8.56914038 58.17780604 -8.57574654 53.2257843 C-8.58428474 46.56086753 -8.57132501 39.89632012 -8.54389763 33.23143959 C-8.53699923 30.78245817 -8.5369313 28.33344678 -8.54411316 25.88446617 C-8.55277398 22.54708708 -8.53690762 19.21070835 -8.5146637 15.87341309 C-8.52290446 14.89919608 -8.53114523 13.92497907 -8.53963572 12.92124033 C-8.48653327 8.61862095 -8.38981337 6.25842146 -6.09283352 2.52597809 C-3.84592302 0.48504765 -2.99035536 -0.05840538 0 0 Z M8 51.625 C8 53.935 8 56.245 8 58.625 C8.58491211 58.65005615 9.16982422 58.6751123 9.77246094 58.70092773 C12.43184471 58.81722962 15.09090403 58.93980067 17.75 59.0625 C18.67039063 59.10181641 19.59078125 59.14113281 20.5390625 59.18164062 C21.42851562 59.22353516 22.31796875 59.26542969 23.234375 59.30859375 C24.45979004 59.36358032 24.45979004 59.36358032 25.70996094 59.41967773 C27.9034423 59.61634275 29.88396413 60.02800594 32 60.625 C33.28571429 69.19642857 33.28571429 69.19642857 32 72.625 C24.21195822 74.57201045 16.01771383 74.22411431 8 74.625 C8 116.205 8 157.785 8 200.625 C17.9 201.12 17.9 201.12 28 201.625 C29.32 201.955 30.64 202.285 32 202.625 C33.28571429 211.19642857 33.28571429 211.19642857 32 214.625 C29.04491553 215.45871359 26.29890387 215.80389534 23.234375 215.94140625 C21.90019531 216.00424805 21.90019531 216.00424805 20.5390625 216.06835938 C19.61867187 216.10767578 18.69828125 216.14699219 17.75 216.1875 C16.81414062 216.23068359 15.87828125 216.27386719 14.9140625 216.31835938 C12.60951359 216.4241805 10.30486161 216.52626557 8 216.625 C8 218.935 8 221.245 8 223.625 C95.78 223.625 183.56 223.625 274 223.625 C274 166.865 274 110.105 274 51.625 C186.22 51.625 98.44 51.625 8 51.625 Z " fill="#0E65E5" transform="translate(182,118.375)"/>
<path d="M0 0 C12.15030707 9.42010967 21.86625448 23.48581221 24.37451172 38.83203125 C26.35477834 58.25046665 23.12457339 75.33635221 10.93310547 90.9609375 C0.16161613 103.80640308 -14.89173339 111.9336641 -31.62548828 113.83203125 C-50.15790605 114.99797806 -66.30504965 109.98372492 -80.45751953 97.83984375 C-92.02256449 87.12915347 -100.12887113 72.61378516 -100.93408203 56.71875 C-101.2682203 46.07484399 -100.91150552 36.71094967 -96.62548828 26.83203125 C-96.08214844 25.51912109 -96.08214844 25.51912109 -95.52783203 24.1796875 C-88.62827445 9.00066081 -75.7601405 -2.35770542 -60.36376953 -8.4609375 C-39.89833409 -15.43378574 -17.80819904 -12.79579817 0 0 Z " fill="#D4E7FE" transform="translate(315.62548828125,205.16796875)"/>
<path d="M0 0 C4.24948329 -0.17415915 8.49805155 -0.28081127 12.75 -0.375 C13.9565625 -0.42527344 15.163125 -0.47554687 16.40625 -0.52734375 C25.16272866 -0.67328506 25.16272866 -0.67328506 27.65039062 1.32714844 C28.703125 2.9609375 28.703125 2.9609375 30 6 C32.9051527 7.45257635 35.40499764 7.08491574 38.64941406 7.04663086 C40.06552856 7.03385492 41.48164612 7.02141451 42.89776611 7.00926208 C43.64990639 7.00134581 44.40204666 6.99342953 45.17697906 6.98527336 C49.99290251 6.9432031 54.80906927 6.95500152 59.62514114 6.95516109 C63.85829407 6.95216356 68.08997427 6.93147145 72.32275391 6.87329102 C76.41713852 6.81805967 80.50904929 6.81166387 84.6036911 6.83798409 C86.16182897 6.83921741 87.72008759 6.82276231 89.27783966 6.78806877 C93.98851554 6.68871084 98.42488303 6.71665241 103 8 C106.01999605 11.00146859 107.38160378 14.12119046 109 18 C111.28828662 20.26653438 111.28828662 20.26653438 113.6875 21.5625 C114.43386719 22.01753906 115.18023437 22.47257812 115.94921875 22.94140625 C118.10342412 24.12011265 118.10342412 24.12011265 121 25 C121 55.36 121 85.72 121 117 C117.7 118.65 114.4 120.3 111 122 C107.6253475 125.91700736 105.26566864 129.41559838 103 134 C102.12160965 134.00142502 101.2432193 134.00285004 100.33821106 134.00431824 C92.05431391 134.02215841 83.77095044 134.06380182 75.48730946 134.13209057 C71.22869151 134.1663607 66.97043229 134.19147052 62.71166992 134.19555664 C58.60052891 134.19983966 54.49019712 134.22830144 50.3793087 134.27343178 C48.81210738 134.28640689 47.24480921 134.29071437 45.67756081 134.28615379 C43.47922362 134.2812473 41.28325123 134.30733534 39.08520508 134.34057617 C37.83500076 134.34723801 36.58479645 134.35389984 35.29670715 134.36076355 C31.12705841 135.16926468 29.65562548 136.7629146 27 140 C26.67 140.66 26.34 141.32 26 142 C17.42 142 8.84 142 0 142 C3.36905093 139.30475925 6.6605945 136.82351638 10.1875 134.375 C27.04893382 122.09769758 37.9315046 104.97079343 41.67480469 84.37353516 C44.51725763 63.62704303 40.61909435 43.55394034 29.05078125 26.05078125 C27.13696728 23.57796279 25.13440945 21.284331 23 19 C22.25105469 18.16082031 21.50210937 17.32164062 20.73046875 16.45703125 C15.20437872 10.55598842 9.44310106 6.48524391 2.4921875 2.49609375 C1.66976563 2.00238281 0.84734375 1.50867188 0 1 C0 0.67 0 0.34 0 0 Z " fill="#D5E8FE" transform="translate(313,185)"/>
<path d="M0 0 C8.07111877 6.99825627 14.95928963 14.51393876 20 24 C20.54269531 25.01707031 21.08539063 26.03414062 21.64453125 27.08203125 C30.50458248 44.90992022 31.94484888 66.06147469 26.39453125 85.18359375 C22.74357116 95.69475966 17.51743455 105.75105525 10 114 C9.28457031 114.80695313 8.56914062 115.61390625 7.83203125 116.4453125 C-6.72979917 131.98109895 -25.89728335 139.8862023 -47.01171875 141.3203125 C-59.99462123 141.70178858 -72.43217994 139.01781816 -84 133 C-84.845625 132.60425781 -85.69125 132.20851563 -86.5625 131.80078125 C-94.64987431 127.79155734 -100.6751145 122.31579802 -107 116 C-107.6703125 115.34128906 -108.340625 114.68257812 -109.03125 114.00390625 C-123.80516137 98.39056809 -128.56891591 77.56731304 -128.26953125 56.72265625 C-127.67225531 38.90735678 -120.01227544 22.06277862 -108 9 C-107.30132812 8.22140625 -106.60265625 7.4428125 -105.8828125 6.640625 C-96.02819472 -3.81017962 -82.81318705 -11.15633056 -69 -15 C-68.28972656 -15.20625 -67.57945312 -15.4125 -66.84765625 -15.625 C-43.919876 -21.26876129 -18.28429525 -14.37284475 0 0 Z M-97.75 20.8125 C-110.58682575 36.2468952 -113.28513275 53.61172624 -112 73 C-109.41664134 88.45346478 -100.28343828 103.1860384 -87.73828125 112.5078125 C-73.87438215 122.18742043 -57.89560719 127.08195086 -40.96679688 124.71582031 C-23.03666167 121.47239624 -7.6403202 112.87983442 2.83081055 97.84179688 C12.59968617 82.97531838 15.50929954 65.19360041 12.61767578 47.68505859 C8.88420406 31.8000875 -1.83752368 17.40431144 -15.4140625 8.52734375 C-43.30891579 -7.94831733 -75.82219721 -2.59626551 -97.75 20.8125 Z " fill="#0F66E5" transform="translate(327,194)"/>
<path d="M0 0 C0.77298431 -0.00700928 1.54596863 -0.01401855 2.34237671 -0.02124023 C4.88877654 -0.03879617 7.4340583 -0.02720668 9.98046875 -0.01367188 C11.75496636 -0.0163675 13.52946252 -0.0202505 15.30395508 -0.02526855 C19.01951181 -0.03116033 22.73468341 -0.02261114 26.45019531 -0.00390625 C31.20852821 0.01888329 35.96595862 0.00575846 40.72425842 -0.01819611 C44.38747943 -0.03266286 48.05048711 -0.02804411 51.7137146 -0.01768494 C53.46796781 -0.01502007 55.2222405 -0.01827898 56.97647095 -0.02760315 C59.43014694 -0.03778347 61.88236953 -0.0222485 64.3359375 0 C65.05816498 -0.00809692 65.78039246 -0.01619385 66.52450562 -0.02453613 C71.32583792 0.05595922 73.81400958 1.08373433 77.16796875 4.51757812 C77.8828125 6.70117188 77.8828125 6.70117188 78.10546875 8.95507812 C78.76811779 12.6513223 79.14212506 13.48865781 81.79296875 16.45507812 C85.68196504 18.83168697 88.75122086 19.50389828 93.16796875 20.51757812 C95.32267814 22.11204835 96.0681256 22.96843808 96.5510788 25.62469387 C96.55480751 26.44265973 96.55853622 27.26062559 96.56237793 28.1033783 C96.57372772 29.0441069 96.58507751 29.98483551 96.59677124 30.95407104 C96.59384064 31.98428375 96.59091003 33.01449646 96.58789062 34.07592773 C96.59636017 35.16234055 96.60482971 36.24875336 96.61355591 37.36808777 C96.63700568 40.96881735 96.63794614 44.56912163 96.63671875 48.16992188 C96.64381545 50.6671211 96.65151371 53.16431869 96.65979004 55.66151428 C96.67325317 60.89962119 96.67497589 66.13761806 96.66894531 71.37573242 C96.66230388 77.42953247 96.68517091 83.48272331 96.72225904 89.53639978 C96.75664922 95.36115024 96.76329345 101.18566073 96.75917053 107.01049995 C96.76086709 109.48848854 96.7705607 111.96648476 96.78831482 114.44441032 C96.81039102 117.90671303 96.80085883 121.36753736 96.78320312 124.82983398 C96.79646637 125.85802246 96.80972961 126.88621094 96.82339478 127.94555664 C96.74086463 134.89288239 96.74086463 134.89288239 93.76062012 138.14259338 C91.43217166 139.37746095 89.68555233 140.10722686 87.10546875 140.51757812 C83.33457839 141.36265525 81.39344572 142.17936267 79.16796875 145.51757812 C78.63117877 147.77708942 78.23343747 149.99315937 77.953125 152.29882812 C76.78796171 155.59142888 75.08736695 156.63744593 72.16796875 158.51757812 C69.420695 158.90468974 67.07748365 159.06589184 64.3359375 159.03515625 C63.17646103 159.04567017 63.17646103 159.04567017 61.99356079 159.05639648 C59.44716096 159.07395242 56.9018792 159.06236293 54.35546875 159.04882812 C52.58097114 159.05152375 50.80647498 159.05540675 49.03198242 159.0604248 C45.31642569 159.06631658 41.60125409 159.05776739 37.88574219 159.0390625 C33.12740929 159.01627296 28.36997888 159.02939779 23.61167908 159.05335236 C19.94845807 159.06781911 16.28545039 159.06320036 12.6222229 159.05284119 C10.86796969 159.05017632 9.113697 159.05343523 7.35946655 159.0627594 C4.90579056 159.07293972 2.45356797 159.05740475 0 159.03515625 C-0.72222748 159.04325317 -1.44445496 159.0513501 -2.18856812 159.05969238 C-6.99038951 158.97918883 -9.47204542 157.94412406 -12.83203125 154.51757812 C-13.49609375 152.51757812 -13.49609375 152.51757812 -13.45703125 150.51757812 C-13.46992188 149.85757813 -13.4828125 149.19757813 -13.49609375 148.51757812 C-12.45100395 145.37001354 -10.56500814 144.31592323 -7.83203125 142.51757812 C-4.5353241 141.99859619 -4.5353241 141.99859619 -0.74682617 141.97167969 C-0.05359253 141.96134201 0.63964111 141.95100433 1.35388184 141.94035339 C3.63199353 141.91099226 5.90921421 141.90942774 8.1875 141.90820312 C9.77220853 141.89321683 11.35690147 141.87648873 12.9415741 141.85809326 C17.10245492 141.81445742 21.26312507 141.79442919 25.42419434 141.77935791 C29.67419879 141.7597731 33.92397618 141.71780468 38.17382812 141.67773438 C46.50514885 141.60247315 54.83638031 141.55215716 63.16796875 141.51757812 C63.57009583 140.68654068 63.57009583 140.68654068 63.98034668 139.8387146 C64.33552368 139.11447296 64.69070068 138.39023132 65.05664062 137.64404297 C65.5825177 136.56550552 65.5825177 136.56550552 66.11901855 135.46517944 C67.3380554 133.20177573 68.64975232 131.72963014 70.66796875 130.14257812 C71.51875 129.45035156 71.51875 129.45035156 72.38671875 128.74414062 C75.43762502 126.64329727 77.40970249 125.51757812 81.16796875 125.51757812 C81.16796875 95.15757812 81.16796875 64.79757813 81.16796875 33.51757812 C79.51796875 33.18757813 77.86796875 32.85757813 76.16796875 32.51757812 C69.89668401 28.93231851 65.47183671 24.429182 63.16796875 17.51757812 C62.2895784 17.5139325 61.41118805 17.51028687 60.50617981 17.50653076 C52.22232228 17.4686415 43.93885807 17.41177824 35.65527821 17.33367538 C31.39671617 17.29419023 27.13836122 17.262007 22.87963867 17.24658203 C18.76857733 17.23142203 14.65808527 17.19698889 10.54727745 17.1492691 C8.98007853 17.13444839 7.41279833 17.12653671 5.84552956 17.12569427 C3.64746254 17.12332478 1.45096907 17.09625065 -0.74682617 17.06347656 C-1.99703049 17.05459412 -3.2472348 17.04571167 -4.5353241 17.03656006 C-8.407243 16.4270258 -10.08101585 15.25837265 -12.83203125 12.51757812 C-13.49609375 10.51757812 -13.49609375 10.51757812 -13.45703125 8.51757812 C-13.46992188 7.85757813 -13.4828125 7.19757813 -13.49609375 6.51757812 C-11.4471536 0.34665248 -5.62416875 -0.0630528 0 0 Z " fill="#0E65E5" transform="translate(352.83203125,176.482421875)"/>
<path d="M0 0 C2.4375 2.125 2.4375 2.125 4 5 C4.25 8.8125 4.25 8.8125 4 12 C4.86625 12.2475 5.7325 12.495 6.625 12.75 C14.68477979 15.73510362 19.83025151 21.02212777 23.875 28.4375 C25.2591423 32.82061728 25.59044636 35.42404073 25 40 C22.9375 43 22.9375 43 20 45 C16.09406322 45.61672686 14.03103752 45.6687811 10.6875 43.5 C8.75710253 40.64015189 8.16497131 38.2691017 7.58984375 34.90234375 C7.02531146 32.55933641 7.02531146 32.55933641 4 30 C4 36.6 4 43.2 4 50 C6.97 50.99 9.94 51.98 13 53 C19.21909833 56.7685588 23.12378903 61.990759 25 69 C26.10690825 76.35394217 24.56626192 83.33643988 20.30078125 89.42578125 C16.06629975 94.50882289 12.14544387 97.56301364 6 100 C5.34 100 4.68 100 4 100 C4.0825 101.051875 4.165 102.10375 4.25 103.1875 C4 107 4 107 2.4375 109.875 C-0.79638713 112.69428622 -2.72539746 113.14998605 -7 113 C-9.9375 111.0625 -9.9375 111.0625 -12 108 C-12.40411669 105.19190709 -12.24237444 102.86001837 -12 100 C-12.825 99.95875 -13.65 99.9175 -14.5 99.875 C-21.03544649 98.24113838 -26.32142888 93.58597837 -30 88 C-33.06089239 82.42480315 -33.97112963 77.3454493 -33 71 C-31.4375 68.375 -31.4375 68.375 -29 67 C-25.14555357 66.4493648 -22.98926813 66.35831256 -19.6875 68.5 C-17.76031841 71.35508384 -17.13455978 73.75782107 -16.4375 77.09375 C-15.93885911 79.26639959 -15.12156798 81.07731203 -14 83 C-13.34 83 -12.68 83 -12 83 C-12 76.07 -12 69.14 -12 62 C-13.98 61.67 -15.96 61.34 -18 61 C-24.66881621 57.97310512 -30.31719383 52.93058261 -33 46 C-33.68391193 38.65192297 -34.43911565 30.14842296 -30.3984375 23.671875 C-26.13998827 18.5807681 -21.21495067 14.45707352 -15 12 C-14.01 12 -13.02 12 -12 12 C-12.05800781 11.39671875 -12.11601562 10.7934375 -12.17578125 10.171875 C-12.54172367 3.68946648 -12.54172367 3.68946648 -9.9375 0.375 C-6.05118362 -1.44412682 -4.0801632 -1.26114135 0 0 Z " fill="#1167E5" transform="translate(282,200)"/>
<path d="M0 0 C8.58 0 17.16 0 26 0 C23.31744161 2.68255839 21.22540225 4.12476614 18 6 C2.96798382 15.49912368 -7.3624439 30.26419619 -13 47 C-13.31839844 47.94488281 -13.63679687 48.88976562 -13.96484375 49.86328125 C-19.74716299 70.40783485 -16.16749599 91.89106789 -6.140625 110.3671875 C-3.27966985 115.36996478 0.10812332 119.75640165 4 124 C4.62519531 124.70511719 5.25039062 125.41023438 5.89453125 126.13671875 C10.28660502 130.83292797 15.06159541 134.17902915 20.58203125 137.45703125 C23 139 23 139 26 142 C17.42 142 8.84 142 0 142 C-0.66 140.02 -1.32 138.04 -2 136 C-9.78804178 134.05298955 -17.98228617 134.40088569 -26 134 C-26 92.42 -26 50.84 -26 8 C-16.1 7.505 -16.1 7.505 -6 7 C-4.68 6.67 -3.36 6.34 -2 6 C-1.34 4.02 -0.68 2.04 0 0 Z " fill="#D5E7FE" transform="translate(216,185)"/>
<path d="M0 0 C0.95769287 -0.0038269 1.91538574 -0.00765381 2.90209961 -0.01159668 C4.92269952 -0.0143132 6.94333476 -0.00697023 8.96386719 0.00976562 C12.05223175 0.03117881 15.13827007 0.00995499 18.2265625 -0.015625 C20.19271345 -0.01298168 22.15886297 -0.00785661 24.125 0 C25.50643188 -0.01214539 25.50643188 -0.01214539 26.91577148 -0.02453613 C31.15828868 0.03734791 33.46672222 0.16235203 37.14428711 2.43945312 C39.2154092 4.69799634 39.72504265 5.51820063 39.625 8.53125 C39.62693359 9.52125 39.62693359 9.52125 39.62890625 10.53125 C38.75280286 13.62480127 37.6844471 14.61367364 35.0625 16.53125 C31.63006468 17.14383529 28.22900373 17.09145089 24.75 17.0625 C23.74412842 17.0663269 22.73825684 17.07015381 21.7019043 17.07409668 C19.57697549 17.07681651 17.45201324 17.06945041 15.32714844 17.05273438 C12.07411068 17.03132641 8.82328155 17.05253432 5.5703125 17.078125 C3.50520346 17.07548174 1.44009579 17.07035679 -0.625 17.0625 C-1.59800049 17.07059692 -2.57100098 17.07869385 -3.57348633 17.08703613 C-10.30541533 16.99352882 -10.30541533 16.99352882 -13.54663086 14.62304688 C-15.03882325 12.37886495 -15.50522374 11.20580241 -15.5 8.53125 C-15.52191406 7.87125 -15.54382813 7.21125 -15.56640625 6.53125 C-13.32737891 -0.58913508 -6.10873272 -0.05370726 0 0 Z " fill="#1167E5" transform="translate(169.9375,458.46875)"/>
<path d="M0 0 C19.47 0 38.94 0 59 0 C54 6 54 6 52 7 C50.6127363 7.10914737 49.2205354 7.15895787 47.82910156 7.17700195 C46.53700775 7.19625481 46.53700775 7.19625481 45.21881104 7.21589661 C43.81885895 7.22697701 43.81885895 7.22697701 42.390625 7.23828125 C41.43105896 7.246353 40.47149292 7.25442474 39.48284912 7.26274109 C37.44854543 7.27658741 35.41421845 7.2873071 33.37988281 7.29516602 C30.27624104 7.31235467 27.17367109 7.35623314 24.0703125 7.40039062 C22.09375783 7.41051966 20.11719411 7.4190351 18.140625 7.42578125 C16.7528183 7.45204338 16.7528183 7.45204338 15.3369751 7.47883606 C9.723385 7.46004561 6.4099188 6.82518535 2 3 C1.34 2.01 0.68 1.02 0 0 Z " fill="#8DBCFD" transform="translate(153,16)"/>
<path d="M0 0 C0.66 0 1.32 0 2 0 C2 5.28 2 10.56 2 16 C-2 15 -2 15 -3 14 C-3.203125 11.85546875 -3.203125 11.85546875 -3.25 9.1875 C-3.27578125 8.31480469 -3.3015625 7.44210938 -3.328125 6.54296875 C-2.93935277 3.52998398 -2.08864858 2.17483069 0 0 Z " fill="#BAD6FB" transform="translate(268,229)"/>
<path d="M0 0 C4 2 4 2 5 4 C5.41059292 8.61917038 4.83584686 11.29158487 2 15 C1.34 15 0.68 15 0 15 C0 10.05 0 5.1 0 0 Z " fill="#C7DEFD" transform="translate(286,267)"/>
</svg>
